<svg width="1920" height="1080" viewBox="0 0 1920 1080" xmlns="http://www.w3.org/2000/svg"><rect width="1920" height="1080" fill="#000000"/><path d="M 0,1080 C 0,1080 0,270 0,270 C 118.03589743589743,227.17179487179487 236.07179487179485,184.34358974358975 334,171 C 431.92820512820515,157.65641025641025 509.74871794871797,173.79743589743592 620,208 C 730.251282051282,242.20256410256408 872.9333333333334,294.4666666666667 974,308 C 1075.0666666666666,321.5333333333333 1134.5179487179487,296.33589743589744 1244,287 C 1353.4820512820513,277.66410256410256 1512.9948717948719,284.18974358974356 1634,284 C 1755.0051282051281,283.81025641025644 1837.502564102564,276.9051282051282 1920,270 C 1920,270 1920,1080 1920,1080 Z" fill="#903fb8" opacity="0.15"/><path d="M 0,1080 C 0,1080 0,540 0,540 C 67.32564102564103,502.9871794871795 134.65128205128207,465.974358974359 263,499 C 391.34871794871793,532.025641025641 580.7205128205128,635.0897435897436 692,619 C 803.2794871794872,602.9102564102564 836.4666666666666,467.6666666666666 916,457 C 995.5333333333334,446.3333333333334 1121.4128205128206,560.2435897435898 1250,578 C 1378.5871794871794,595.7564102564102 1509.8820512820514,517.3589743589744 1622,495 C 1734.1179487179486,472.6410256410257 1827.0589743589744,506.3205128205128 1920,540 C 1920,540 1920,1080 1920,1080 Z" fill="#903fb8" opacity="0.3"/><path d="M 0,1080 C 0,1080 0,810 0,810 C 84.31025641025644,768.5794871794872 168.6205128205129,727.1589743589744 263,750 C 357.3794871794871,772.8410256410256 461.828205128205,859.9435897435898 599,889 C 736.171794871795,918.0564102564102 906.0666666666668,889.0666666666667 1011,857 C 1115.9333333333332,824.9333333333333 1155.9051282051282,789.7897435897436 1245,768 C 1334.0948717948718,746.2102564102564 1472.3128205128205,737.774358974359 1593,747 C 1713.6871794871795,756.225641025641 1816.8435897435897,783.1128205128205 1920,810 C 1920,810 1920,1080 1920,1080 Z" fill="#903fb8" opacity="0.44999999999999996"/></svg>